<?xml version="1.0" encoding="UTF-8"?>
<svg width="24px" height="24px" viewBox="0 0 24 24" version="1.1" xmlns="http://www.w3.org/2000/svg" xmlns:xlink="http://www.w3.org/1999/xlink">
    <!-- Generator: Sketch 60 (88103) - https://sketch.com -->
    <title>退出</title>
    <desc>Created with Sketch.</desc>
    <g id="页面-1" stroke="none" stroke-width="1" fill="none" fill-rule="evenodd">
        <g id="连接成功" transform="translate(-1840.000000, -37.000000)" fill="#59C3F2" fill-rule="nonzero">
            <g id="退出" transform="translate(1840.000000, 37.000000)">
                <path d="M12,24.0000047 C5.38298674,24.0000047 0,18.6168023 0,12.0000047 C0,5.38399929 5.38301018,4.66796459e-06 12,4.66796459e-06 L12,4.66796459e-06 C14.9842604,-0.00262902852 17.8619446,1.10935086 20.069023,3.11799984 L20.0690231,3.11799986 C20.4777077,3.48898664 20.5082661,4.12103175 20.1372811,4.52971604 C20.1371951,4.52981078 20.1371091,4.5299055 20.137023,4.53000021 C19.7660219,4.93999937 19.1340231,4.96900142 18.7240212,4.59800035 L18.7240211,4.59800024 C16.8845945,2.92459524 14.4867267,1.99812793 12.0000104,2.00000467 C6.48600573,2.00000467 2.00001157,6.48599326 2.00001157,11.9999932 C2.00001157,17.515001 6.48600573,21.9999835 12.0000104,21.9999835 C14.4840079,21.9999835 16.8650192,21.0839835 18.7040286,19.4199865 L18.7040285,19.4199865 C19.1124436,19.0493631 19.7439807,19.0799987 20.1146045,19.4884128 C20.1150801,19.4889368 20.1155551,19.4894614 20.1160295,19.4899865 L20.1160296,19.4899865 C20.4866229,19.8990271 20.4554552,20.5310441 20.0464164,20.9016371 C20.0462874,20.9017539 20.0461585,20.9018707 20.0460295,20.9019874 C17.8390284,22.8999886 14.981025,24.0000047 12.0000264,24.0000047 M20.7654329,12.9481726 L8.00001764,12.9481726 C7.4500163,12.9481726 7.00001764,12.498172 7.00001764,11.9481736 C7.00001764,11.3981728 7.45001864,10.9481745 8.00001764,10.9481745 L20.7654329,10.9481745 L18.58603,8.70597392 L18.58603,8.70597391 C18.1970754,8.31488445 18.1970754,7.68306434 18.58603,7.29197254 L18.58603,7.29197253 C18.9771198,6.90301826 19.6089404,6.90301826 20.0000326,7.29197254 L23.7080285,11.1069827 L23.7080285,11.1069827 C23.9113529,11.3106081 24.0169121,11.5920722 23.9976297,11.8791817 L23.9976298,11.8791818 C24.0007901,11.9250608 24.0007901,11.9711029 23.9976297,12.0169819 L23.9976298,12.0169821 C24.016971,12.3041596 23.911408,12.5857097 23.7080285,12.7893827 L20.0000326,16.6043929 L20.0000326,16.6043929 C19.6089428,16.9933471 18.9771222,16.9933471 18.58603,16.6043929 L18.58603,16.6043929 C18.1970754,16.2133034 18.1970754,15.5814833 18.58603,15.1903915 L20.765433,12.9479917 L20.7654329,12.9481726 Z" id="形状"></path>
            </g>
        </g>
    </g>
</svg>